<svg width="361" height="322" viewBox="0 0 361 322" fill="none" xmlns="http://www.w3.org/2000/svg">
<path d="M309.048 298.42C289.545 319.345 237.707 309.902 191.737 300.756C145.768 291.61 105.752 282.813 81.7042 255.656C57.7326 228.563 49.7166 183.038 61.6122 141.962C73.4195 100.825 105.223 64.1255 148.845 43.3047C192.467 22.4199 247.917 17.4181 275.58 42.0823C303.303 66.6544 303.166 120.884 309.509 173.58C315.784 226.267 328.614 277.487 309.048 298.42Z" fill="#7CA0FE"/>
<path d="M222.946 156.871H176.869V161.46H222.946V156.871Z" fill="white"/>
<path d="M212.772 151.096H172.712V156.875H212.772V151.096Z" fill="black"/>
<path d="M211.263 161.464H171.629V173.624H211.263V161.464Z" fill="white"/>
<path d="M288.671 112.003C285.241 116.536 284.193 121.341 286.452 123.878L286.416 123.967L320.474 93.6953" fill="black"/>
<path d="M44.172 159.055C42.2663 154.45 37.6766 134.824 22.0659 134.824C14.7039 134.824 3.00897 142.471 3.00897 155.015C3.00897 162.173 7.97983 171.147 12.6618 180.505C14.0782 179.281 15.7694 178.417 17.5917 177.985C19.4141 177.554 21.3137 177.568 23.1293 178.028C24.9448 178.487 26.6226 179.377 28.02 180.622C29.4175 181.868 30.4933 183.432 31.156 185.182C31.8188 186.932 32.0489 188.815 31.8268 190.673C31.6047 192.531 30.937 194.308 29.8804 195.852C28.8238 197.397 27.4096 198.664 25.7578 199.546C24.1061 200.428 22.2656 200.898 20.3929 200.917C27.9716 243.833 46.3345 249.051 50.7998 249.051C55.2652 249.051 60.7616 197.13 60.7616 191.074C60.7616 185.018 52.1117 178.237 44.172 159.055Z" fill="white"/>
<path d="M91.3129 198.761C89.8391 198.757 88.3842 198.43 87.0516 197.801C85.719 197.172 84.5415 196.257 83.6029 195.122C82.6644 193.987 81.9877 192.659 81.6212 191.233C81.2546 189.807 81.2071 188.318 81.4822 186.872C81.7572 185.425 82.3479 184.057 83.2123 182.865C84.0767 181.672 85.1936 180.685 86.4834 179.972C87.7732 179.26 89.2044 178.84 90.675 178.743C92.1456 178.646 93.6195 178.874 94.9919 179.411C94.9037 170.97 90.7512 155.015 72.3362 155.015C62.3624 155.015 55.887 169.295 54.2822 181.555C52.9543 191.687 43.3094 208.38 43.3094 221.938C43.3094 240.11 55.4377 253.809 61.0665 253.809C72.9019 253.809 86.7433 223.189 92.3801 198.705C92.0256 198.742 91.6694 198.761 91.3129 198.761Z" fill="black"/>
<path d="M59.3775 249.873C58.5751 244.951 56.3444 213.862 69.8889 190.372" stroke="white" stroke-width="2.19" stroke-linecap="round" stroke-linejoin="round"/>
<path d="M22.9887 151.897C37.1791 172.285 49.4678 207.005 51.3735 243.432" stroke="black" stroke-width="2.19" stroke-linecap="round" stroke-linejoin="round"/>
<path d="M55.883 314.363H71.1286L88.7814 246.23H55.883H22.9887L40.6415 314.363H55.883Z" fill="white"/>
<path d="M282.364 173.624H71.3693V178.882H282.364V173.624Z" fill="#FFF4F4"/>
<path d="M89.0301 314.363V178.714" stroke="#FFF4F4" stroke-width="2" stroke-linecap="round" stroke-linejoin="round"/>
<path d="M124.524 314.363V178.714" stroke="#FFF4F4" stroke-width="2" stroke-linecap="round" stroke-linejoin="round"/>
<path d="M89.0301 193.27H124.524" stroke="#FFF4F4" stroke-width="2" stroke-linecap="round" stroke-linejoin="round"/>
<path d="M89.0301 305.185H124.524" stroke="#FFF4F4" stroke-width="2" stroke-linecap="round" stroke-linejoin="round"/>
<path d="M229.213 314.363V178.714" stroke="#FFF4F4" stroke-width="2" stroke-linecap="round" stroke-linejoin="round"/>
<path d="M264.707 314.363V178.714" stroke="#FFF4F4" stroke-width="2" stroke-linecap="round" stroke-linejoin="round"/>
<path d="M229.213 193.27H264.707" stroke="#FFF4F4" stroke-width="2" stroke-linecap="round" stroke-linejoin="round"/>
<path d="M229.213 305.185H264.707" stroke="#FFF4F4" stroke-width="2" stroke-linecap="round" stroke-linejoin="round"/>
<path d="M137.082 166.874H98.2577V173.624H137.082V166.874Z" fill="white"/>
<path d="M162.638 85.6355V81.9844C162.621 76.1838 160.307 70.6256 156.201 66.5239C152.095 62.4223 146.531 60.1105 140.725 60.0936H139.585C133.779 60.1105 128.215 62.4223 124.109 66.5239C120.003 70.6256 117.689 76.1838 117.672 81.9844V166.874" stroke="white" stroke-width="3" stroke-linecap="round" stroke-linejoin="round"/>
<path d="M174.229 106.24C174.229 106.043 174.229 105.839 174.229 105.647V97.3905C174.22 94.3184 172.995 91.3746 170.82 89.2026C168.645 87.0307 165.697 85.8073 162.622 85.7999C159.55 85.8126 156.608 87.0383 154.437 89.2097C152.267 91.3811 151.044 94.3219 151.035 97.3905V105.647C151.035 105.847 151.035 106.047 151.035 106.24H174.229Z" fill="black"/>
<path d="M166.177 106.288C166.146 107.204 165.76 108.073 165.1 108.71C164.44 109.348 163.558 109.704 162.64 109.704C161.722 109.704 160.84 109.348 160.18 108.71C159.521 108.073 159.134 107.204 159.104 106.288" fill="white"/>
<path d="M168.724 161.464H211.251C212.864 161.465 214.411 162.103 215.554 163.239C216.697 164.375 217.344 165.917 217.354 167.528V167.528C217.348 169.139 216.705 170.682 215.565 171.821C214.425 172.96 212.88 173.602 211.267 173.608H168.74" stroke="#7CA0FE" stroke-width="2.09" stroke-linecap="round" stroke-linejoin="round"/>
<path d="M251.981 153.985H238.112V173.628H251.981V153.985Z" fill="black"/>
<path d="M251.981 158.382C252.687 158.362 253.39 158.485 254.047 158.741C254.705 158.997 255.305 159.383 255.811 159.875C256.317 160.367 256.72 160.955 256.994 161.605C257.269 162.255 257.41 162.953 257.41 163.658C257.41 164.364 257.269 165.062 256.994 165.712C256.72 166.361 256.317 166.95 255.811 167.442C255.305 167.933 254.705 168.319 254.047 168.575C253.39 168.832 252.687 168.954 251.981 168.934" stroke="#7CA0FE" stroke-width="2.19" stroke-linecap="round" stroke-linejoin="round"/>
<path d="M359.398 312.495H305.938V320.399H359.398V312.495Z" stroke="white" stroke-width="3" stroke-linecap="round" stroke-linejoin="round"/>
<path d="M332.67 312.495V79.8082" stroke="white" stroke-width="3" stroke-linecap="round" stroke-linejoin="round"/>
<path d="M332.67 138.371C326.207 138.35 320.015 135.776 315.445 131.21C310.875 126.645 308.299 120.459 308.277 114.003V101.31" stroke="white" stroke-width="3" stroke-linecap="round" stroke-linejoin="round"/>
<path d="M357.019 79.8082V90.2686C356.998 96.7248 354.421 102.911 349.851 107.476C345.281 112.041 339.089 114.615 332.626 114.636" stroke="white" stroke-width="3" stroke-linecap="round" stroke-linejoin="round"/>
<path d="M305.096 96.6571C305.096 96.6571 302.079 94.537 300.065 94.537C298.051 94.537 288.743 102.228 287.989 105.899C287.235 109.57 290.629 118.392 291.6 119.362L300.073 111.819L305.096 96.6531" fill="black"/>
<path d="M357.019 79.74C358.408 79.74 359.535 78.6149 359.535 77.2271C359.535 75.8392 358.408 74.7142 357.019 74.7142C355.63 74.7142 354.504 75.8392 354.504 77.2271C354.504 78.6149 355.63 79.74 357.019 79.74Z" fill="white"/>
<path d="M235.452 88.7456C249.236 88.7456 260.41 77.5828 260.41 63.8128C260.41 50.0429 249.236 38.8801 235.452 38.8801C221.668 38.8801 210.493 50.0429 210.493 63.8128C210.493 77.5828 221.668 88.7456 235.452 88.7456Z" fill="white"/>
<path d="M235.452 63.8128V45.99" stroke="black" stroke-width="3" stroke-linecap="round" stroke-linejoin="round"/>
<path d="M235.452 63.8128H246.978" stroke="black" stroke-width="3" stroke-linecap="round" stroke-linejoin="round"/>
<path d="M89.2146 46.3226H0V50.0379H89.2146V46.3226Z" fill="#FFF4F4"/>
<path d="M48.513 0H39.5903V46.3226H48.513V0Z" fill="white"/>
<path d="M39.5903 5.7753H31.8311V46.3266H39.5903V5.7753Z" fill="white"/>
<path d="M59.7728 7.40324L53.2551 11.6664L75.5815 45.7295L82.0992 41.4664L59.7728 7.40324Z" fill="white"/>
<path d="M53.3194 12.6768H48.509V46.3226H53.3194V12.6768Z" fill="black"/>
<path d="M16.0159 50.0379H11.366V54.683H16.0159V50.0379Z" fill="#FFF4F4"/>
<path d="M77.8487 50.0379H73.1988V54.683H77.8487V50.0379Z" fill="#FFF4F4"/>
<path d="M298.629 112.933C295.732 109.679 298.271 102.693 304.306 97.3304C310.34 91.9679 317.573 90.2646 320.474 93.515" fill="black"/>
</svg>
