<svg width="350" height="350" viewBox="0 0 350 350" fill="none" xmlns="http://www.w3.org/2000/svg">
<path d="M261.45 163.917V288.663C261.45 297.792 254.071 305.171 244.942 305.171H147.992C138.862 305.171 131.483 297.792 131.483 288.663V41.1542C131.483 32.025 138.862 24.6458 147.992 24.6458H244.942C254.071 24.6458 261.45 32.025 261.45 41.1542V163.917Z" fill="#7CA0FE"/>
<path d="M237.592 310.392L216.154 280.7C216.154 280.7 204.079 264.017 196.496 263.725C196.437 268.1 196.729 299.483 198.071 310.363H237.592V310.392Z" fill="white"/>
<path d="M168.642 18.1125H224.292C226.829 18.1125 228.871 20.1542 228.871 22.6917V29.7208C228.871 32.2583 226.829 34.3 224.292 34.3H168.642C166.104 34.3 164.062 32.2583 164.062 29.7208V22.6917C164.062 20.1833 166.104 18.1125 168.642 18.1125Z" fill="#F3F3F3"/>
<path d="M257.483 305.638H261.45V257.338L228.025 251.796L196.467 263.754C197.954 267.138 205.8 289.596 222.629 309.254H257.454V305.638H257.483Z" fill="white"/>
<path d="M187.163 187.162C184.45 187.104 184.45 191.275 184.45 191.275C183.138 187.367 154.496 116.113 154.496 116.113C154.496 116.113 148.575 118.621 155.4 132.096C153.183 133.408 147.029 138.337 149.567 146.271C151.492 152.221 155.692 154.321 158.317 154.321C157.879 158.783 167.417 204.371 168.671 206.558C171.588 211.721 177.217 217.35 180.542 217.496C185.85 217.758 198.917 210.787 202.154 207.142C205.392 203.496 192.267 187.25 187.163 187.162Z" fill="white"/>
<path d="M226.596 162.021C213.675 150.5 182.146 178.092 182.758 182.875C183.371 187.658 200.346 204.954 205.333 203.496C210.321 202.037 236.775 171.062 226.596 162.021Z" fill="white"/>
<path d="M261.45 163.917C255.704 154.613 247.275 148.604 235.2 148.604C193.288 148.604 192.092 257.687 196.467 263.754C200.346 269.121 246.575 270.521 261.45 266.817" fill="black"/>
<path d="M261.45 203.729L257.046 205.538C257.425 206.938 259.117 214.783 261.45 223.446" fill="white"/>
<path d="M261.45 162.954C258.533 160.796 255.558 159.921 252.817 161.058C237.008 167.65 248.267 207.288 252.817 208.746C254.275 209.213 257.6 208.746 261.45 207.725" fill="white"/>
<path d="M243.25 158.171C243.25 161.642 224.029 162.4 224.029 158.171V134.546H243.25V158.171Z" fill="white"/>
<path d="M247.261 130.915C252.043 118.896 248.676 106.27 239.74 102.715C230.804 99.1596 219.684 106.021 214.901 118.04C210.119 130.059 213.487 142.685 222.422 146.24C231.358 149.795 242.479 142.934 247.261 130.915Z" fill="white"/>
<path d="M249.234 134.927C251.006 132.452 251.042 129.441 249.313 128.203C247.585 126.965 244.746 127.968 242.973 130.443C241.201 132.918 241.165 135.928 242.894 137.167C244.622 138.405 247.461 137.402 249.234 134.927Z" fill="white"/>
<path d="M262.267 121.596C262.267 118.388 259.263 114.858 258.708 110.833C258.417 108.792 259.058 100.304 256.667 97.4167C251.708 91.4667 248.792 92.6917 245 91.2917C238.408 88.8708 235.871 84.875 230.417 84.875C224.233 84.875 221.725 88.0833 217.292 88.0833C212.217 88.0833 208.075 85.75 200.958 85.75C197.167 85.75 192.208 90.7083 192.208 95.0833C192.208 105.438 201.833 103.95 201.833 106.458C201.833 108.208 201.25 109.608 201.25 112C201.25 115.15 205.333 116.958 207.667 116.958C214.783 116.958 215.717 116.083 215.717 116.083C217.117 113.254 218.925 110.658 221.083 108.354C221.375 108.063 225.983 111.3 233.508 111.563C239.692 111.767 244.038 112.963 244.038 115.85C244.038 117.892 243.279 123.929 243.338 125.621C243.396 127.313 243.979 128.421 244.358 128.421C244.738 128.421 244.942 127.867 247.333 127.867C249.871 127.867 250.075 130.988 250.513 130.988C253.079 130.988 262.267 128.917 262.267 121.596Z" fill="black"/>
<path d="M147.146 83.0667H161.7C166.017 83.0667 169.517 86.5667 169.517 90.8833V105.438C169.517 109.754 166.017 113.254 161.7 113.254H147.146C142.829 113.254 139.329 109.754 139.329 105.438V90.8833C139.329 86.5667 142.829 83.0667 147.146 83.0667Z" fill="black"/>
<path d="M245.467 15.75H147.496C134.312 15.75 123.608 26.4542 123.608 39.6375V290.121C123.608 303.304 134.312 314.008 147.496 314.008H245.467C258.65 314.008 269.354 303.304 269.354 290.121V39.6375C269.354 26.4542 258.65 15.75 245.467 15.75ZM261.45 163.917V288.662C261.45 297.792 254.071 305.171 244.942 305.171H147.992C138.862 305.171 131.483 297.792 131.483 288.662V41.1542C131.483 32.025 138.862 24.6458 147.992 24.6458H244.942C254.071 24.6458 261.45 32.025 261.45 41.1542V163.917Z" fill="white"/>
<path d="M260.633 52.8208H296.013C302.4 52.8208 307.592 58.0125 307.592 64.4C307.592 70.7875 302.4 75.9792 296.013 75.9792H260.633C254.246 75.9792 249.054 70.7875 249.054 64.4C249.054 57.9833 254.246 52.8208 260.633 52.8208Z" fill="black"/>
<path d="M262.821 70.5833L252.788 60.5208V80.6458L262.821 70.5833Z" fill="black"/>
<path d="M266.379 67.6958C267.99 67.6958 269.296 66.39 269.296 64.7792C269.296 63.1683 267.99 61.8625 266.379 61.8625C264.768 61.8625 263.463 63.1683 263.463 64.7792C263.463 66.39 264.768 67.6958 266.379 67.6958Z" fill="white"/>
<path d="M278.338 67.6958C279.948 67.6958 281.254 66.39 281.254 64.7792C281.254 63.1683 279.948 61.8625 278.338 61.8625C276.727 61.8625 275.421 63.1683 275.421 64.7792C275.421 66.39 276.727 67.6958 278.338 67.6958Z" fill="white"/>
<path d="M290.267 67.6958C291.878 67.6958 293.183 66.39 293.183 64.7792C293.183 63.1683 291.878 61.8625 290.267 61.8625C288.656 61.8625 287.35 63.1683 287.35 64.7792C287.35 66.39 288.656 67.6958 290.267 67.6958Z" fill="white"/>
<path d="M102.404 287.963C106.75 286.096 110.133 283.208 110.133 274.896C110.133 235.958 64.05 246.458 64.05 214.112" stroke="#7CA0FE" stroke-width="9" stroke-miterlimit="10" stroke-linecap="round"/>
<path d="M72.1583 213.908C74.6667 217.175 66.2958 220.879 65.1 219.333C63.9042 217.788 69.5042 210.438 72.1583 213.908Z" fill="#7CA0FE"/>
<path d="M112.992 156.683C116.025 160.65 107.042 164.267 105.583 162.371C104.125 160.475 109.725 152.425 112.992 156.683Z" fill="#7CA0FE"/>
<path d="M110.542 173.075C112.963 177.45 101.208 180.979 100.042 178.879C98.875 176.779 107.975 168.379 110.542 173.075Z" fill="#7CA0FE"/>
<path d="M111.242 185.529C114.421 189.379 103.483 194.979 101.967 193.142C100.45 191.304 107.858 181.388 111.242 185.529Z" fill="#7CA0FE"/>
<path d="M114.975 199.5C118.154 203.35 107.217 208.95 105.7 207.112C104.183 205.275 111.592 195.387 114.975 199.5Z" fill="#7CA0FE"/>
<path d="M118.242 212.537C121.129 216.038 111.563 220.821 110.192 219.129C108.821 217.438 115.15 208.775 118.242 212.537Z" fill="#7CA0FE"/>
<path d="M122.617 226.8C125.504 230.3 115.938 235.083 114.567 233.392C113.196 231.7 119.525 223.037 122.617 226.8Z" fill="#7CA0FE"/>
<path d="M56.2916 211.342C57.3416 207.375 65.4208 211.692 64.925 213.617C64.4291 215.542 55.1833 215.6 56.2916 211.342Z" fill="#7CA0FE"/>
<path d="M56.1458 225.312C55.6208 221.258 64.75 222.25 64.9833 224.204C65.2167 226.158 56.7 229.687 56.1458 225.312Z" fill="#7CA0FE"/>
<path d="M64.1958 238C61.5417 234.879 69.7083 230.708 70.9917 232.196C72.275 233.683 67.0542 241.325 64.1958 238Z" fill="#7CA0FE"/>
<path d="M74.3167 244.854C72.7125 241.092 81.7542 239.575 82.5125 241.383C83.2708 243.192 76.0083 248.879 74.3167 244.854Z" fill="#7CA0FE"/>
<path d="M87.8792 251.971C86.275 248.208 95.3167 246.692 96.075 248.5C96.8333 250.308 89.6 255.996 87.8792 251.971Z" fill="#7CA0FE"/>
<path d="M98.0583 262.296C97.7083 258.212 106.779 259.583 106.954 261.537C107.129 263.492 98.4375 266.671 98.0583 262.296Z" fill="#7CA0FE"/>
<path d="M76.5625 222.688C79.7709 225.254 72.5375 230.883 70.9917 229.658C69.4459 228.433 73.1209 219.917 76.5625 222.688Z" fill="#7CA0FE"/>
<path d="M83.825 229.979C87.3542 232.079 80.9958 238.642 79.3042 237.65C77.6125 236.658 80.0625 227.763 83.825 229.979Z" fill="#7CA0FE"/>
<path d="M97.1541 237.154C100.479 239.546 93.5083 245.525 91.9041 244.358C90.2999 243.192 93.5958 234.587 97.1541 237.154Z" fill="#7CA0FE"/>
<path d="M103.221 289.479C103.221 287.817 117.367 272.3 117.367 253.021C117.367 221.579 99.8083 205.829 99.8083 183.371C99.8083 179.112 100.188 165.754 106.954 160.329" stroke="#7CA0FE" stroke-width="9" stroke-miterlimit="10" stroke-linecap="round"/>
<path d="M122.442 325.617H96.6584C95.4626 325.617 94.3834 324.858 94.0042 323.692L81.1709 284.813C80.7042 283.354 81.4917 281.779 82.95 281.283C83.2417 281.196 83.5334 281.138 83.825 281.138H135.392C136.938 281.138 138.192 282.392 138.192 283.938C138.192 284.229 138.133 284.521 138.046 284.813L125.096 323.692C124.688 324.858 123.638 325.617 122.442 325.617Z" fill="white"/>
<path d="M126.758 243.163C128.275 247.45 117.658 248.675 116.958 246.633C116.258 244.592 125.154 238.554 126.758 243.163Z" fill="#7CA0FE"/>
<path d="M109.433 249.463C112.787 246.429 118.037 255.733 116.404 257.192C114.771 258.65 105.817 252.729 109.433 249.463Z" fill="#7CA0FE"/>
<path d="M106.721 237.854C108.938 233.917 116.842 241.092 115.792 242.958C114.742 244.825 104.329 242.083 106.721 237.854Z" fill="#7CA0FE"/>
<path d="M104.183 224.087C106.4 220.15 114.304 227.325 113.254 229.192C112.204 231.058 101.792 228.317 104.183 224.087Z" fill="#7CA0FE"/>
<path d="M99.6625 213.15C101.121 208.833 110.221 214.404 109.521 216.475C108.821 218.546 98.0875 217.729 99.6625 213.15Z" fill="#7CA0FE"/>
<path d="M93.2458 198.042C95.375 194.017 103.454 200.987 102.433 202.912C101.412 204.837 91 202.358 93.2458 198.042Z" fill="#7CA0FE"/>
<path d="M90.2417 181.242C92.7209 177.45 100.158 185.121 98.9626 186.929C97.7667 188.738 87.5875 185.325 90.2417 181.242Z" fill="#7CA0FE"/>
<path d="M91.7291 166.775C94.2083 162.983 101.646 170.654 100.45 172.462C99.2541 174.271 89.075 170.858 91.7291 166.775Z" fill="#7CA0FE"/>
<path d="M126.758 258.037C128.275 262.325 117.658 263.55 116.958 261.508C116.258 259.467 125.154 253.458 126.758 258.037Z" fill="#7CA0FE"/>
<path d="M159 97C160.66 97 161.99 95.66 161.99 94C161.99 92.34 160.66 91 159 91C157.34 91 156 92.34 156 94C156 95.66 157.34 97 159 97ZM151 97C152.66 97 153.99 95.66 153.99 94C153.99 92.34 152.66 91 151 91C149.34 91 148 92.34 148 94C148 95.66 149.34 97 151 97ZM151 99C148.67 99 144 100.17 144 102.5V105H158V102.5C158 100.17 153.33 99 151 99ZM159 99C158.71 99 158.38 99.02 158.03 99.05C159.19 99.89 160 101.02 160 102.5V105H166V102.5C166 100.17 161.33 99 159 99Z" fill="white"/>
</svg>
